# AST/ASF file generated using VICON BodyLanguage
# -----------------------------------------------
:version 1.10
:name VICON
:units
  mass 1.0
  length 0.45
  angle deg
:documentation
   .ast/.asf automatically generated from VICON data using
   VICON BodyBuilder and BodyLanguage model FoxedUp or BRILLIANT.MOD
:root
   order TX TY TZ RX RY RZ
   axis XYZ
   position 0 0 0  
   orientation 0 0 0 
:bonedata
  begin
     id 1 
     name lhipjoint
     direction 0.541323 -0.757556 0.364798 
     length 2.47576 
     axis 0 0 0  XYZ
  end
  begin
     id 2 
     name lfemur
     direction 0.34202 -0.939693 0  
     length 7.46493  
     axis 0 0 20  XYZ
    dof rx ry rz
    limits (-160.0 20.0)
           (-70.0 70.0)
           (-60.0 70.0)
  end
  begin
     id 3 
     name ltibia
     direction 0.34202 -0.939693 0   
     length 7.73805   
     axis 0 0 20   XYZ
    dof rx
    limits (-10.0 170.0)
  end
  begin
     id 4 
     name lfoot
     direction 0.107174 -0.294458 0.949636   
     length 2.25864   
     axis -90 7.62852e-016 20   XYZ
    dof rx rz
    limits (-45.0 90.0)
           (-70.0 20.0)
  end
  begin
     id 5 
     name ltoes
     direction 1.53606e-011 -4.21934e-011 1   
     length 1.12451   
     axis -90 7.62852e-016 20   XYZ
    dof rx
    limits (-90.0 20.0)
  end
  begin
     id 6 
     name rhipjoint
     direction -0.524745 -0.766967 0.36933   
     length 2.44538  
     axis 0 0 0  XYZ 
  end
  begin
     id 7 
     name rfemur
     direction -0.34202 -0.939693 0   
     length 7.61604   
     axis 0 0 -20   XYZ
    dof rx ry rz
    limits (-160.0 20.0)
           (-70.0 70.0)
           (-70.0 60.0)
  end
  begin
     id 8 
     name rtibia
     direction -0.34202 -0.939693 0   
     length 7.61056   
     axis 0 0 -20   XYZ
    dof rx
    limits (-10.0 170.0)
 end
 begin
     id 9 
     name rfoot
     direction -0.12616 -0.346623 0.929482   
     length 2.46372  
     axis -90 -7.62852e-016 -20   XYZ
    dof rx rz
    limits (-45.0 90.0)
           (-20.0 70.0)
  end
  begin
     id 10 
     name rtoes
     direction -1.53531e-011 -4.22004e-011 1   
     length 1.21611   
     axis -90 -7.62852e-016 -20   XYZ
    dof rx
    limits (-90.0 20.0)
  end
  begin
     id 11 
     name lowerback
     direction -0.000778023 0.997293 -0.0735223   
     length 2.06139   
     axis 0 0 0   XYZ
    dof rx ry rz
    limits (-20.0 45.0)
           (-30.0 30.0)
           (-30.0 30.0)
  end
  begin
     id 12 
     name upperback
     direction 0.0222598 0.999722 -0.0078355   
     length 2.06383   
     axis 0 0 0   XYZ
    dof rx ry rz
    limits (-20.0 45.0)
           (-30.0 30.0)
           (-30.0 30.0)
  end
  begin
     id 13 
     name thorax
     direction 0.0219654 0.999405 0.0265994   
     length 2.07163   
     axis 0 0 0   XYZ
    dof rx ry rz
    limits (-20.0 45.0)
           (-30.0 30.0)
           (-30.0 30.0)
  end
  begin
     id 14 
     name lowerneck
     direction 0.0213282 0.988147 0.15202   
     length 1.75969   
     axis 0 0 0   XYZ
    dof rx ry rz
    limits (-20.0 45.0)
           (-30.0 30.0)
           (-30.0 30.0)
  end
  begin
     id 15 
     name upperneck
     direction -0.0546456 0.982624 -0.177379   
     length 1.79244   
     axis 0 0 0   XYZ
    dof rx ry rz
    limits (-20.0 45.0)
           (-30.0 30.0)
           (-30.0 30.0)
  end
  begin
     id 16
     name head
     direction -0.0199987 0.996855 -0.076686  
     length 1.80555  
     axis 0 0 0   XYZ
    dof rx ry rz
    limits (-20.0 45.0)
           (-30.0 30.0)
           (-30.0 30.0)
  end
  begin
     id 17 
     name lclavicle
     direction 0.929565 0.363219 -0.063096  
     length 3.55722  
     axis 0 0 0   XYZ
    dof ry rz
    limits (-20.0 10.0)
           (0.0 20.0)
  end
  begin
     id 18 
     name lhumerus
     direction 1 -4.48993e-011 -2.36203e-027   
     length 4.92785   
     axis 180 -30 -90   XYZ
    dof rx ry rz
    limits (-60.0 90.0)
           (-90.0 90.0)
           (-90.0 90.0)
  end
  begin
     id 19
     name lradius
     direction 1 -4.48947e-011 2.02997e-027   
     length 3.44052   
     axis 180 -30 -90   XYZ
    dof rx
    limits (-10.0 170.0)
  end
  begin
     id 20
     name lwrist
     direction 1 -4.48962e-011 1.45991e-027   
     length 1.72026   
     axis 1.49639e-024 90 90   XYZ
    dof ry
    limits (-180.0 0.0)
 end
  begin
     id 21 
     name lhand
     direction 1 -4.48984e-011 2.91906e-027   
     length 0.654326   
     axis -1.863e-015 90 90   XYZ
    dof rx rz
    limits (-90.0 90.0)
           (-45.0 45.0)
  end
  begin
     id 22 
     name lfingers
     direction 1 -4.48961e-011 5.83968e-027   
     length 0.527534   
     axis -3.72598e-015 90 90   XYZ
    dof rx
    limits (0.0 90.0)
  end
  begin
     id 23
     name lthumb
     direction 0.707107 -6.34963e-011 0.707107   
     length 0.757437   
     axis -90 45 -6.68868e-015   XYZ
    dof rx rz
    limits (-45.0 45.0)
           (-45.0 45.0)
  end
  begin
     id 24 
     name rclavicle
     direction -0.902944 0.422599 -0.0781198   
     length 3.54432  
     axis 0 0 0   XYZ 
    dof ry rz
    limits (-10.0 20.0)
           (-20.0 0.0)
  end
  begin
     id 25 
     name rhumerus
     direction -1 -4.48953e-011 -4.75835e-028  
     length 5.09181   
     axis 180 30 90   XYZ
    dof rx ry rz
    limits (-90.0 60.0)
           (-90.0 90.0)
           (-90.0 90.0)
  end
  begin
     id 26 
     name rradius
     direction -1 -4.48986e-011 -3.25889e-027   
     length 3.49865   
     axis 180 30 90   XYZ
    dof rx
    limits (-10.0 170.0)
  end
  begin
     id 27 
     name rwrist
     direction -1 -4.48963e-011 1.45989e-027   
     length 1.74933   
     axis 1.49639e-024 -90 -90   XYZ
    dof ry
    limits (-180.0 0.0)
  end
  begin
     id 28
     name rhand
     direction -1 -4.49003e-011 2.91844e-027   
     length 0.66641   
     axis -1.863e-015 -90 -90   XYZ
    dof rx rz
    limits (-90.0 90.0)
           (-45.0 45.0)
  end
  begin
     id 29
     name rfingers
     direction -1 -4.48973e-011 5.83886e-027   
     length 0.537277   
     axis -3.72598e-015 -90 -90   XYZ
    dof rx
    limits (0.0 90.0)
  end
  begin
     id 30
     name rthumb
     direction -0.707107 -6.34976e-011 0.707107   
     length 0.771425   
     axis -90 -45 6.68868e-015   XYZ
    dof rx rz
    limits (-45.0 45.0)
           (-45.0 45.0)
  end
:hierarchy
  begin
    root lhipjoint rhipjoint lowerback
    lhipjoint lfemur
    lfemur ltibia
    ltibia lfoot
    lfoot ltoes
    rhipjoint rfemur
    rfemur rtibia
    rtibia rfoot
    rfoot rtoes
    lowerback upperback
    upperback thorax
    thorax lowerneck lclavicle rclavicle
    lowerneck upperneck
    upperneck head
    lclavicle lhumerus
    lhumerus lradius
    lradius lwrist
    lwrist lhand lthumb
    lhand lfingers
    rclavicle rhumerus
    rhumerus rradius
    rradius rwrist
    rwrist rhand rthumb
    rhand rfingers
  end

#!OML:ASF H:\LiuWeirdWalks\Patient Classification 1\Patient 1\Session 1\male.ASF
:FULLY-SPECIFIED
:DEGREES
167
root 1.82807 18.0098 4.49615 3.0168 4.10365 -3.72742
lowerback 2.26252 0.522995 -6.49697
upperback -3.5948 0.639817 5.36002
thorax -5.19582 0.703916 9.34503
lowerneck -3.92563 1.44356 6.07054
upperneck -11.5208 3.87605 21.0161
head -3.08059 1.04976 5.42925
rclavicle -8.54774e-015 8.74653e-015
rhumerus -20.663 -21.9248 -22.8108
rradius 58.6888
rwrist -20.5154
rhand 1.57483 6.2671
rfingers 7.12502
rthumb 27.0979 -21.8081
lclavicle -8.54774e-015 8.74653e-015
lhumerus -12.1923 11.0887 22.8363
lradius 134.643
lwrist 33.0402
lhand 26.1643 -2.26366
lfingers 7.12502
lthumb 50.2279 18.8386
rfemur -7.97724 -3.50688 20.366
rtibia 29.7613
rfoot -13.8697 -25.0202
rtoes -5.16781
lfemur -6.42902 -6.07164 -12.8669
ltibia 27.4509
lfoot -13.1784 26.1153
ltoes -7.6239
168
root 1.8333 18.0096 4.49466 2.99542 4.13142 -3.69708
lowerback 2.21643 0.456982 -6.56767
upperback -3.6136 0.555025 5.47573
thorax -5.17573 0.667181 9.5213
lowerneck -3.94475 1.14857 5.99429
upperneck -10.4009 3.29882 21.7878
head -2.69734 0.858172 5.68545
rclavicle 1.77912e-014 -2.3059e-014
rhumerus -20.4769 -22.3935 -23.0835
rradius 58.7925
rwrist -20.9855
rhand 1.1348 6.21912
rfingers 7.12502
rthumb 26.6769 -21.9209
lclavicle 1.77912e-014 -2.3059e-014
lhumerus -11.9441 11.2899 22.5114
lradius 134.057
lwrist 33.2965
lhand 26.2864 -2.30481
lfingers 7.12502
lthumb 50.3395 18.7378
rfemur -7.9507 -3.48317 20.3179
rtibia 29.7619
rfoot -13.8836 -25.0598
rtoes -5.15592
lfemur -6.41645 -6.09069 -12.9205
ltibia 27.4513
lfoot -13.178 26.11
ltoes -7.61698
169
root 1.83938 18.0091 4.49361 2.97297 4.15921 -3.64926
lowerback 2.16262 0.39091 -6.62907
upperback -3.62947 0.470083 5.5741
thorax -5.14691 0.628928 9.67284
lowerneck -3.95831 0.831001 5.89223
upperneck -9.2219 2.66183 22.5335
head -2.2885 0.649815 5.93592
rclavicle -1.37161e-014 -3.02153e-014
rhumerus -20.331 -22.8341 -23.3507
rradius 58.8895
rwrist -21.4816
rhand 0.656576 6.16519
rfingers 7.12502
rthumb 26.2191 -22.0437
lclavicle -1.37161e-014 -3.02153e-014
lhumerus -11.718 11.4405 22.178
lradius 133.412
lwrist 33.4567
lhand 26.341 -2.38323
lfingers 7.12502
lthumb 50.3894 18.6326
rfemur -7.92035 -3.48428 20.2433
rtibia 29.767
rfoot -13.9006 -25.0772
rtoes -5.15129
lfemur -6.39569 -6.098 -12.9966
ltibia 27.4463
lfoot -13.1769 26.0954
ltoes -7.60734
170
root 1.84607 18.0086 4.49259 2.94806 4.18976 -3.59246
lowerback 2.10799 0.324478 -6.67607
upperback -3.64342 0.384749 5.65998
thorax -5.11445 0.58923 9.80191
lowerneck -4.03495 0.494798 5.78245
upperneck -7.91822 1.94401 23.2377
head -1.81973 0.425021 6.17222
rclavicle 1.13307e-014 3.02153e-014
rhumerus -20.2161 -23.2615 -23.6127
rradius 58.9732
rwrist -22.0185
rhand 0.208911 6.11572
rfingers 7.12502
rthumb 25.7905 -22.1561
lclavicle 1.13307e-014 3.02153e-014
lhumerus -11.5204 11.5425 21.8363
lradius 132.728
lwrist 33.5551
lhand 26.3297 -2.44145
lfingers 7.12502
lthumb 50.3791 18.58
rfemur -7.88582 -3.50953 20.1532
rtibia 29.7742
rfoot -13.9187 -25.0762
rtoes -5.14814
lfemur -6.37022 -6.08361 -13.0824
ltibia 27.4384
lfoot -13.1727 26.059
ltoes -7.60687
171
root 1.85309 18.0081 4.49132 2.91915 4.22761 -3.54122
lowerback 2.05875 0.253115 -6.6995
upperback -3.6553 0.293155 5.73738
thorax -5.08043 0.544964 9.90785
lowerneck -4.10284 0.146477 5.64336
upperneck -6.58201 1.18563 23.9002
head -1.33488 0.190087 6.39788
rclavicle -2.17172e-014 -4.37326e-014
rhumerus -20.1392 -23.6605 -23.8747
rradius 59.0646
rwrist -22.5916
rhand -0.24309 6.0386
rfingers 7.12502
rthumb 25.3575 -22.2954
lclavicle -2.17172e-014 -4.37326e-014
lhumerus -11.3483 11.6024 21.4875
lradius 132.008
lwrist 33.6114
lhand 26.281 -2.47798
lfingers 7.12502
lthumb 50.3345 18.5673
rfemur -7.84652 -3.55281 20.0669
rtibia 29.7803
rfoot -13.9359 -25.0668
rtoes -5.14375
lfemur -6.34405 -6.04818 -13.1587
ltibia 27.4319
lfoot -13.1691 25.9937
ltoes -7.60791
172
root 1.86024 18.0078 4.48926 2.88845 4.27098 -3.49324
lowerback 2.01707 0.1811 -6.70454
upperback -3.66021 0.200652 5.80599
thorax -5.0423 0.498705 9.9929
lowerneck -4.13709 -0.205711 5.51023
upperneck -5.28119 0.416439 24.4833
head -0.861713 -0.0504045 6.59546
rclavicle 6.16232e-015 2.70347e-014
rhumerus -20.0761 -24.0659 -24.1368
rradius 59.1274
rwrist -23.0996
rhand -0.685655 5.96168
rfingers 7.12502
rthumb 24.9335 -22.4318
lclavicle 6.16232e-015 2.70347e-014
lhumerus -11.1681 11.6371 21.1675
lradius 131.24
lwrist 33.6257
lhand 26.2075 -2.48252
lfingers 7.12502
lthumb 50.2674 18.5987
rfemur -7.80694 -3.60159 19.9841
rtibia 29.785
rfoot -13.9524 -25.0573
rtoes -5.13296
lfemur -6.3225 -5.99495 -13.2276
ltibia 27.4278
lfoot -13.1623 25.9048
ltoes -7.61714
173
root 1.86686 18.0076 4.48602 2.85896 4.31583 -3.45438
lowerback 1.98742 0.108949 -6.69651
upperback -3.65865 0.107656 5.86961
thorax -5.0035 0.451184 10.0645
lowerneck -4.20036 -0.567498 5.35923
upperneck -3.94328 -0.393895 25.0063
head -0.364334 -0.300245 6.77451
rclavicle -4.02539e-015 9.54166e-015
rhumerus -20.0122 -24.5031 -24.4062
rradius 59.1584
rwrist -23.523
rhand -1.10734 5.87229
rfingers 7.12502
rthumb 24.5293 -22.5766
lclavicle -4.02539e-015 9.54166e-015
lhumerus -10.9877 11.657 20.8678
lradius 130.435
lwrist 33.5816
lhand 26.1034 -2.47749
lfingers 7.12502
lthumb 50.1722 18.6543
rfemur -7.77336 -3.62513 19.9183
rtibia 29.7885
rfoot -13.9638 -25.0733
rtoes -5.1183
lfemur -6.31072 -5.92398 -13.2794
ltibia 27.4257
lfoot -13.1523 25.7924
ltoes -7.62335
174
root 1.87283 18.0078 4.48175 2.83692 4.36068 -3.4141
lowerback 1.96574 0.0359355 -6.68997
upperback -3.65203 0.0126985 5.92761
thorax -4.96317 0.402253 10.1307
lowerneck -4.25345 -0.92449 5.2084
upperneck -2.61548 -1.20757 25.4413
head 0.131738 -0.549809 6.92346
rclavicle 3.52843e-015 2.54444e-014
rhumerus -19.9434 -24.9438 -24.686
rradius 59.1716
rwrist -23.9415
rhand -1.59163 5.75095
rfingers 7.12502
rthumb 24.065 -22.7601
lclavicle 3.52843e-015 2.54444e-014
lhumerus -10.8219 11.6508 20.5814
lradius 129.594
lwrist 33.4292
lhand 25.9188 -2.49986
lfingers 7.12502
lthumb 50.0033 18.7211
rfemur -7.7534 -3.61707 19.8591
rtibia 29.7937
rfoot -13.9672 -25.1202
rtoes -5.10407
lfemur -6.31149 -5.85529 -13.3281
ltibia 27.4216
lfoot -13.1339 25.6788
ltoes -7.63184
175
root 1.87855 18.0082 4.47706 2.82201 4.40082 -3.3644
lowerback 1.94546 -0.0353993 -6.68693
upperback -3.6386 -0.0807534 5.97642
thorax -4.91648 0.353325 10.1883
lowerneck -4.33457 -1.28382 5.05789
upperneck -1.2374 -2.05168 25.7931
head 0.653771 -0.80423 7.04302
rclavicle 1.59028e-015 3.97569e-015
rhumerus -19.8581 -25.4155 -24.9727
rradius 59.1459
rwrist -24.3093
rhand -2.07467 5.621
rfingers 7.12502
rthumb 23.6018 -22.9505
lclavicle 1.59028e-015 3.97569e-015
lhumerus -10.6662 11.622 20.3159
lradius 128.724
lwrist 33.1562
lhand 25.6557 -2.56553
lfingers 7.12502
lthumb 49.7625 18.781
rfemur -7.74421 -3.5818 19.7945
rtibia 29.8023
rfoot -13.9635 -25.1893
rtoes -5.10211
lfemur -6.31791 -5.78971 -13.3865
ltibia 27.4124
lfoot -13.107 25.5724
ltoes -7.6463
176
root 1.88419 18.0086 4.47231 2.81089 4.43784 -3.30539
lowerback 1.92031 -0.106564 -6.68854
upperback -3.61112 -0.174565 6.01693
thorax -4.85172 0.302625 10.2388
lowerneck -4.48612 -1.64506 4.93318
upperneck 0.227803 -2.93897 26.0342
head 1.2206 -1.06393 7.11894
rclavicle 4.87022e-015 -4.45278e-014
rhumerus -19.7676 -25.8899 -25.2673
rradius 59.103
rwrist -24.6584
rhand -2.56594 5.47631
rfingers 7.12502
rthumb 23.1305 -23.1551
lclavicle 4.87022e-015 -4.45278e-014
lhumerus -10.5233 11.5743 20.0606
lradius 127.833
lwrist 32.7977
lhand 25.3013 -2.65554
lfingers 7.12502
lthumb 49.4376 18.8576
rfemur -7.74154 -3.53176 19.7216
rtibia 29.8174
rfoot -13.9589 -25.2711
rtoes -5.10478
lfemur -6.3223 -5.73898 -13.457
ltibia 27.3942
lfoot -13.0738 25.4824
ltoes -7.66239
177
root 1.89011 18.009 4.46774 2.80054 4.47238 -3.23555
lowerback 1.88593 -0.179859 -6.69145
upperback -3.56684 -0.271557 6.0486
thorax -4.76282 0.248143 10.2795
lowerneck -4.65948 -1.99818 4.79017
upperneck 1.72021 -3.82933 26.206
head 1.80248 -1.31989 7.17354
rclavicle -8.44835e-016 9.54166e-015
rhumerus -19.6686 -26.3372 -25.5711
rradius 59.0523
rwrist -25.0017
rhand -3.08471 5.30373
rfingers 7.12502
rthumb 22.6327 -23.3893
lclavicle -8.44835e-016 9.54166e-015
lhumerus -10.4011 11.4988 19.8094
lradius 126.922
lwrist 32.3296
lhand 24.8301 -2.77275
lfingers 7.12502
lthumb 49.0051 18.9571
rfemur -7.74105 -3.48372 19.6345
rtibia 29.8399
rfoot -13.9552 -25.3493
rtoes -5.11373
lfemur -6.32016 -5.69013 -13.5418
ltibia 27.3676
lfoot -13.0355 25.3967
ltoes -7.68723
178
root 1.8964 18.009 4.46346 2.78882 4.50671 -3.15007
lowerback 1.84697 -0.255893 -6.70007
upperback -3.50801 -0.372868 6.07214
thorax -4.65471 0.189838 10.3141
lowerneck -4.88579 -2.34591 4.65954
upperneck 3.27314 -4.73664 26.2758
head 2.41516 -1.5746 7.19012
rclavicle 1.83876e-015 -8.74653e-014
rhumerus -19.5805 -26.7347 -25.873
rradius 59.0039
rwrist -25.3189
rhand -3.64696 5.13548
rfingers 7.12502
rthumb 22.0929 -23.6224
lclavicle 1.83876e-015 -8.74653e-014
lhumerus -10.3106 11.3891 19.5641
lradius 126.009
lwrist 31.7697
lhand 24.2576 -2.87626
lfingers 7.12502
lthumb 48.4787 19.1101
rfemur -7.7386 -3.45334 19.525
rtibia 29.8692
rfoot -13.962 -25.4096
rtoes -5.11419
lfemur -6.31067 -5.6235 -13.6441
ltibia 27.3354
lfoot -12.9952 25.2947
ltoes -7.72438
179
root 1.90281 18.0089 4.45905 2.77703 4.54148 -3.05691
lowerback 1.8118 -0.335659 -6.713
upperback -3.4412 -0.479909 6.09037
thorax -4.53889 0.127874 10.3451
lowerneck -5.17184 -2.69377 4.48989
upperneck 4.91002 -5.67139 26.286
head 3.07089 -1.83102 7.1912
rclavicle 1.14301e-014 1.90833e-014
rhumerus -19.5169 -27.0408 -26.1732
rradius 58.976
rwrist -25.6667
rhand -4.29971 4.96606
rfingers 7.12502
rthumb 21.4661 -23.8646
lclavicle 1.14301e-014 1.90833e-014
lhumerus -10.2568 11.2244 19.3121
lradius 125.095
lwrist 31.1488
lhand 23.5953 -2.96996
lfingers 7.12502
lthumb 47.8684 19.304
rfemur -7.73804 -3.43776 19.4038
rtibia 29.9033
rfoot -13.9727 -25.4574
rtoes -5.11366
lfemur -6.30129 -5.53137 -13.752
ltibia 27.3021
lfoot -12.9554 25.1655
ltoes -7.77063
180
root 1.9089 18.0087 4.45434 2.76499 4.57199 -2.97034
lowerback 1.78685 -0.413658 -6.72008
upperback -3.37166 -0.584863 6.10709
thorax -4.42642 0.0667148 10.3707
lowerneck -5.44442 -3.03296 4.33959
upperneck 6.54394 -6.58545 26.1866
head 3.72182 -2.08251 7.15204
rclavicle 1.01877e-014 -1.03368e-014
rhumerus -19.4812 -27.283 -26.4617
rradius 58.9465
rwrist -25.9856
rhand -5.03324 4.82266
rfingers 7.12502
rthumb 20.7615 -24.0867
lclavicle 1.01877e-014 -1.03368e-014
lhumerus -10.2326 11 19.067
lradius 124.188
lwrist 30.4877
lhand 22.8438 -3.05137
lfingers 7.12502
lthumb 47.1745 19.5376
rfemur -7.74131 -3.42057 19.2907
rtibia 29.9396
rfoot -13.9882 -25.5028
rtoes -5.0995
lfemur -6.29542 -5.4086 -13.8471
ltibia 27.2707
lfoot -12.9142 25.0091
ltoes -7.83147
